<?xml version="1.0" standalone="no"?>
<!DOCTYPE svg PUBLIC "-//W3C//DTD SVG 20010904//EN"
 "http://www.w3.org/TR/2001/REC-SVG-20010904/DTD/svg10.dtd">
<svg version="1.0" xmlns="http://www.w3.org/2000/svg"
 width="3480.000000pt" height="980.000000pt" viewBox="0 0 3480.000000 980.000000"
 preserveAspectRatio="xMidYMid meet">

<g transform="translate(0.000000,980.000000) scale(0.100000,-0.100000)"
fill="#000000" stroke="none">
<path d="M4765 8480 c-901 -66 -1678 -412 -2309 -1029 -711 -696 -1153 -1661
-1205 -2631 -53 -991 382 -2095 1129 -2864 308 -317 624 -549 995 -731 389
-191 748 -294 1179 -340 191 -20 592 -20 802 0 1131 108 2069 639 2755 1561
195 261 319 474 504 863 138 293 489 988 835 1656 351 677 813 1559 830 1584
15 22 69 -86 1298 -2605 706 -1446 1303 -2659 1328 -2696 26 -37 81 -101 123
-141 128 -119 241 -167 399 -167 289 0 534 168 613 420 31 101 40 234 22 321
-23 115 -59 193 -338 744 -144 286 -829 1638 -1520 3005 -691 1367 -1286 2542
-1322 2612 -103 204 -230 323 -410 384 -100 35 -248 39 -333 10 -152 -51 -302
-178 -391 -332 -25 -43 -601 -1168 -1279 -2499 -678 -1331 -1255 -2454 -1282
-2495 -234 -350 -608 -679 -996 -874 -561 -282 -1262 -349 -1878 -181 -870
239 -1571 945 -1849 1861 -43 141 -89 368 -107 519 -16 142 -15 463 1 585 60
447 229 853 515 1235 110 146 389 429 531 536 392 298 796 474 1247 545 151
24 514 24 671 1 420 -64 797 -209 1154 -443 167 -110 302 -221 457 -375 l140
-139 648 0 c356 0 648 2 648 5 0 14 -89 181 -160 299 -157 264 -359 523 -584
749 -590 591 -1326 943 -2158 1032 -177 19 -542 27 -703 15z"/>
<path d="M16875 6810 c-152 -24 -324 -101 -449 -200 -267 -212 -413 -565 -377
-909 15 -144 41 -234 106 -366 151 -309 427 -507 762 -546 300 -36 632 101
826 339 53 65 117 159 117 173 0 3 -71 9 -157 11 l-158 6 -73 -69 c-127 -118
-279 -179 -447 -179 -112 0 -185 18 -295 72 -115 56 -237 176 -297 294 -65
124 -87 216 -87 359 0 219 65 377 219 530 139 140 270 195 460 195 180 0 316
-55 449 -181 l82 -77 161 5 161 6 -30 51 c-56 94 -92 141 -162 212 -121 120
-277 210 -441 254 -92 24 -277 34 -370 20z"/>
<path d="M18915 6810 c-231 -35 -462 -169 -611 -354 -223 -277 -289 -665 -170
-1005 152 -435 590 -717 1027 -661 225 29 410 120 570 279 366 366 402 958 83
1372 -130 169 -337 304 -545 354 -79 19 -273 27 -354 15z m300 -305 c33 -8 98
-34 145 -57 115 -56 237 -176 297 -293 170 -329 98 -703 -182 -943 -98 -85
-281 -152 -414 -152 -138 0 -308 62 -423 154 -107 85 -193 218 -240 366 -20
65 -23 95 -22 220 0 130 3 153 27 225 79 234 258 412 479 476 81 23 251 25
333 4z"/>
<path d="M21025 6810 c-519 -81 -890 -574 -835 -1110 31 -298 185 -570 416
-736 188 -135 442 -202 662 -175 280 34 544 195 695 424 58 87 122 231 149
332 31 121 33 378 4 495 -51 203 -130 344 -276 490 -141 141 -281 222 -461
265 -79 19 -274 27 -354 15z m300 -305 c33 -8 98 -34 145 -57 68 -33 102 -59
171 -127 71 -71 94 -102 132 -181 67 -136 82 -200 81 -350 0 -142 -16 -213
-70 -327 -94 -196 -281 -346 -486 -387 -97 -20 -159 -20 -256 0 -251 50 -451
240 -534 504 -30 98 -33 308 -5 410 67 246 266 450 502 515 69 18 246 19 320
0z"/>
<path d="M22390 5800 l0 -980 140 0 140 0 0 394 0 393 208 6 c140 4 228 11
271 22 253 63 387 240 407 540 19 297 -125 509 -396 584 -69 19 -101 21 -422
21 l-348 0 0 -980z m678 705 c71 -21 131 -70 167 -135 29 -53 30 -60 30 -180
0 -121 -1 -127 -31 -180 -37 -65 -94 -105 -173 -120 -29 -5 -127 -10 -217 -10
l-164 0 0 320 0 320 168 0 c122 0 183 -4 220 -15z"/>
<path d="M23770 5800 l0 -980 500 0 500 0 0 135 0 135 -360 0 -360 0 0 300 0
300 360 0 360 0 0 135 0 135 -360 0 -360 0 0 275 0 275 360 0 360 0 0 135 0
135 -500 0 -500 0 0 -980z"/>
<path d="M25110 5801 l0 -981 145 0 145 0 2 437 3 438 309 -438 308 -437 174
0 c96 0 174 3 174 6 0 3 -117 171 -261 372 l-260 367 73 12 c159 26 280 99
356 213 94 140 125 371 76 564 -49 192 -194 331 -414 397 -71 21 -97 23 -452
27 l-378 4 0 -981z m668 693 c142 -29 228 -92 281 -204 23 -49 26 -67 26 -165
0 -95 -3 -116 -23 -152 -33 -62 -74 -106 -130 -136 -82 -44 -158 -57 -354 -57
l-178 0 0 365 0 365 150 0 c99 0 178 -6 228 -16z"/>
<path d="M26770 5833 c-200 -522 -369 -963 -377 -980 l-13 -33 148 0 148 0
113 280 113 280 373 0 373 0 12 -32 c6 -18 42 -123 80 -233 38 -110 76 -221
85 -247 l17 -48 159 0 c87 0 159 1 159 3 0 1 -170 441 -378 977 l-377 975
-136 3 -135 3 -364 -948z m630 184 c68 -185 121 -339 118 -342 -3 -3 -120 -4
-261 -3 l-255 3 124 340 c68 187 127 347 130 355 5 13 6 13 13 0 5 -8 64 -167
131 -353z"/>
<path d="M27960 6650 l0 -130 175 0 175 0 0 -850 0 -850 145 0 145 0 0 850 0
850 175 0 175 0 0 130 0 130 -495 0 -495 0 0 -130z"/>
<path d="M29130 5800 l0 -980 145 0 145 0 0 980 0 980 -145 0 -145 0 0 -980z"/>
<path d="M29524 6763 c3 -10 174 -451 378 -981 l372 -963 80 3 80 3 367 975
367 975 -146 3 c-98 2 -148 -1 -152 -8 -4 -7 -123 -333 -265 -726 -142 -393
-262 -711 -265 -707 -4 4 -121 331 -261 726 l-254 717 -154 0 c-142 0 -153 -1
-147 -17z"/>
<path d="M31691 6758 c-5 -13 -174 -452 -375 -976 -201 -523 -366 -954 -366
-957 0 -3 66 -4 146 -3 l146 3 112 275 113 275 374 3 374 2 95 -280 95 -280
159 0 c146 0 158 1 154 18 -3 9 -170 442 -371 962 -201 520 -369 953 -373 963
-5 15 -23 17 -140 17 -130 0 -135 -1 -143 -22z m269 -728 c68 -184 125 -341
127 -347 4 -10 -51 -13 -256 -13 -144 0 -261 3 -261 7 0 22 255 701 261 695 4
-4 62 -158 129 -342z"/>
<path d="M4880 6730 c-414 -31 -808 -187 -1130 -447 -89 -72 -267 -254 -331
-338 -570 -746 -574 -1783 -10 -2524 313 -411 762 -682 1286 -777 140 -25 424
-30 582 -10 941 120 1664 861 1774 1820 17 144 6 453 -20 592 -80 428 -277
800 -582 1101 -116 114 -182 168 -314 255 -363 241 -820 360 -1255 328z m734
-1737 c339 -501 619 -919 622 -927 6 -14 -49 -16 -540 -16 l-546 0 0 -230 0
-230 -115 0 -115 0 0 230 0 230 -590 0 c-324 0 -590 3 -590 6 0 3 230 346 512
762 659 976 740 1094 743 1090 1 -2 280 -413 619 -915z"/>
<path d="M4587 4914 l-437 -639 421 -3 c231 -1 606 -1 834 0 l413 3 -382 617
c-211 339 -389 627 -397 639 -14 21 -35 -8 -452 -617z"/>
<path d="M17390 4564 c-14 -2 -56 -9 -94 -15 -353 -58 -651 -332 -770 -707
-57 -181 -57 -372 0 -553 122 -389 399 -658 754 -731 128 -27 365 -21 485 11
278 74 493 274 612 568 40 101 80 252 91 351 l8 72 -603 0 -603 0 0 -140 0
-140 435 0 c239 0 435 -3 435 -6 0 -18 -67 -128 -110 -182 -147 -181 -358
-272 -596 -259 -172 10 -293 60 -412 171 -122 114 -197 258 -228 440 -42 237
47 484 236 660 77 70 142 109 245 143 69 22 97 26 200 26 197 1 328 -50 461
-175 l71 -68 177 0 176 0 -31 63 c-120 239 -325 393 -604 453 -69 15 -286 27
-335 18z"/>
<path d="M21029 4555 c-202 -38 -363 -126 -514 -279 -187 -190 -279 -403 -292
-672 -13 -267 62 -502 225 -705 365 -456 1035 -487 1438 -68 259 270 353 654
249 1012 -32 111 -67 186 -131 285 -132 202 -341 352 -574 412 -109 29 -293
35 -401 15z m340 -301 c135 -34 280 -132 366 -246 211 -278 207 -665 -10 -940
-60 -76 -142 -140 -240 -187 -129 -62 -241 -80 -370 -61 -162 24 -288 92 -404
216 -130 139 -195 306 -195 504 0 143 19 223 81 350 39 79 62 110 132 180 180
180 404 244 640 184z"/>
<path d="M25915 4556 c-208 -40 -371 -131 -521 -289 -128 -134 -203 -270 -256
-465 -18 -64 -21 -105 -22 -247 0 -152 3 -180 27 -267 93 -347 336 -608 663
-711 215 -68 452 -53 661 43 168 78 303 193 405 344 l61 91 -89 6 c-49 4 -121
7 -160 8 l-72 1 -60 -59 c-70 -69 -169 -130 -262 -162 -88 -31 -295 -34 -380
-5 -229 77 -387 237 -466 471 -34 103 -44 273 -21 382 33 154 98 273 208 383
129 129 280 193 459 193 172 0 322 -61 454 -184 l74 -69 161 0 c89 0 161 4
161 8 0 5 -27 50 -60 100 -136 206 -333 350 -565 412 -103 28 -300 35 -400 16z"/>
<path d="M15107 3583 c-202 -527 -370 -966 -373 -976 -6 -16 3 -17 141 -15
l146 3 112 273 111 272 375 -2 374 -3 93 -268 c50 -147 94 -270 96 -273 3 -2
75 -3 161 -2 l155 3 -376 973 -376 972 -136 0 -135 0 -368 -957z m631 207 c67
-184 122 -341 122 -347 0 -10 -58 -13 -255 -13 -205 0 -255 3 -255 13 0 7 54
162 120 343 66 181 123 335 126 343 3 8 8 10 13 5 4 -5 62 -160 129 -344z"/>
<path d="M18740 3555 l0 -975 145 0 145 0 0 436 0 437 308 -437 307 -436 178
0 178 0 -19 28 c-11 15 -128 180 -261 367 l-242 340 91 18 c225 44 363 175
416 393 23 95 23 287 0 373 -49 181 -167 311 -343 377 -127 48 -188 54 -559
54 l-344 0 0 -975z m715 682 c183 -59 274 -193 263 -390 -5 -104 -39 -172
-114 -229 -90 -69 -142 -81 -371 -86 l-203 -4 0 367 0 367 188 -5 c134 -3 201
-9 237 -20z"/>
<path d="M22430 3555 l0 -975 140 0 140 0 0 390 0 390 148 0 c183 0 306 15
397 47 218 79 326 244 341 523 14 257 -84 441 -286 538 -47 22 -109 45 -138
51 -32 7 -188 11 -397 11 l-345 0 0 -975z m726 683 c108 -57 158 -151 156
-298 -1 -136 -37 -219 -115 -264 -60 -35 -138 -46 -319 -46 l-158 0 0 321 0
321 193 -4 c186 -3 193 -4 243 -30z"/>
<path d="M23850 3555 l0 -975 505 0 505 0 0 130 0 130 -360 0 -360 0 0 300 0
300 360 0 360 0 0 135 0 135 -360 0 -360 0 0 275 0 275 360 0 360 0 0 135 0
135 -505 0 -505 0 0 -975z"/>
<path d="M27232 3798 c4 -730 4 -733 26 -808 93 -303 294 -451 612 -452 256
-1 435 92 532 279 92 174 98 237 98 1046 l0 667 -150 0 -149 0 -3 -722 -3
-723 -23 -58 c-49 -120 -130 -188 -249 -207 -68 -11 -168 2 -222 30 -47 24
-103 84 -131 139 -48 95 -50 130 -50 859 l0 682 -145 0 -146 0 3 -732z"/>
<path d="M28942 3562 c-205 -533 -372 -972 -372 -975 0 -4 66 -6 146 -5 l146
3 110 273 111 272 372 0 373 0 16 -42 c9 -24 51 -146 94 -273 l79 -230 160 -3
161 -2 -129 332 c-71 183 -240 622 -376 975 l-248 643 -136 0 -135 0 -372
-968z m637 210 c66 -182 121 -337 121 -342 0 -6 -94 -10 -261 -10 -245 0 -261
1 -254 18 4 9 60 163 126 342 65 179 122 332 125 340 5 13 6 13 13 0 5 -8 63
-165 130 -348z"/>
<path d="M30450 3555 l0 -975 145 0 145 0 0 431 c0 236 3 428 8 425 4 -2 142
-196 307 -430 l300 -426 178 0 178 0 -58 83 c-32 45 -149 210 -260 367 l-203
285 93 18 c222 44 354 167 413 387 23 89 24 291 1 377 -49 183 -166 312 -345
380 -126 47 -187 53 -558 53 l-344 0 0 -975z m671 691 c130 -28 228 -97 276
-194 26 -52 28 -66 28 -172 0 -109 -2 -118 -30 -169 -34 -61 -79 -102 -150
-135 -78 -37 -143 -46 -330 -46 l-175 0 0 365 0 365 158 0 c96 0 183 -6 223
-14z"/>
<path d="M32030 3555 l0 -975 120 0 120 0 0 975 0 975 -120 0 -120 0 0 -975z"/>
<path d="M32752 3562 c-205 -532 -372 -971 -372 -975 0 -4 65 -7 144 -7 l143
0 22 53 c12 28 63 152 113 275 l90 222 373 0 373 0 36 -102 c20 -57 62 -179
94 -273 l59 -170 160 -3 160 -2 -376 972 -376 973 -136 3 -136 3 -371 -969z
m632 219 c70 -188 126 -347 126 -352 0 -5 -108 -9 -261 -9 -245 0 -261 1 -254
18 4 9 58 157 120 327 139 381 135 369 140 364 2 -3 60 -159 129 -348z"/>
</g>
</svg>
